<?xml version="1.0" encoding="UTF-8"?>
<svg width="800px" height="184px" viewBox="0 0 800 184" version="1.1" xmlns="http://www.w3.org/2000/svg" xmlns:xlink="http://www.w3.org/1999/xlink">
    <!-- Generator: Sketch 52.6 (67491) - http://www.bohemiancoding.com/sketch -->
    <title>Header</title>
    <desc>Created with Sketch.</desc>
    <defs>
        <linearGradient x1="-27.5197408%" y1="-43.3603539%" x2="180.10212%" y2="164.827731%" id="linearGradient-1">
            <stop stop-color="#20E2D7" offset="0%"></stop>
            <stop stop-color="#F9FEA5" offset="100%"></stop>
        </linearGradient>
    </defs>
    <g id="Header" stroke="none" stroke-width="1" fill="none" fill-rule="evenodd">
        <g id="Text" transform="translate(30.000000, 0.000000)" fill="url(#linearGradient-1)">
            <g id="Group" transform="translate(0.500000, 0.000000)">
                <path d="M42.2067738,141.53965 L27.2739032,126.721803 C24.1170157,123.589235 21.8140562,118.069216 21.8140562,113.635203 L21.8140562,86.609623 C21.8140562,84.8450523 20.7041509,81.7038557 19.6006643,80.3351223 L1.1952243,57.5055371 C-0.686272489,55.1717813 -0.304958126,51.7663918 2.04691354,49.8993877 C4.39878521,48.0323835 7.83060902,48.4107608 9.71210581,50.7445166 L28.1175458,73.5741017 C30.7685345,76.8623142 32.7209836,82.388037 32.7209836,86.609623 L32.7209836,113.635203 C32.7209836,115.19955 33.8753592,117.966499 34.9862652,119.068848 L45.6950246,129.69512 L62.9217885,76.9884011 C56.0782259,70.5734622 51.8081066,61.4841785 51.8081066,51.4029016 L51.8081066,5.42191196 C51.8081066,0.798617252 57.2731207,-1.69557479 60.8106381,1.31322789 L78.3660604,16.2448264 L107.052108,16.2448264 L124.607531,1.31322789 C128.145048,-1.69557479 133.610062,0.798617252 133.610062,5.42191196 L133.610062,51.4029016 C133.610062,61.4868382 129.341699,70.5773639 122.497616,76.9921864 L141.695654,135.730186 C150.270492,161.965615 134.126044,184 106.347619,184 L79.0705498,184 C53.3454162,184 37.6166207,165.155306 42.2067738,141.53965 Z M113.100842,83.3238187 L113.100842,83.3238187 C108.556542,85.4222519 103.488264,86.5937702 98.1421086,86.5937702 L87.2760603,86.5937702 C81.9313905,86.5937702 76.8630504,85.4213698 72.3180764,83.3215242 L54.0974325,139.069104 C47.8006506,158.334627 58.6744564,173.177086 79.0705498,173.177086 L106.347619,173.177086 C126.719046,173.177086 137.610268,158.312448 131.320736,139.069104 L113.100842,83.3238187 Z M62.715034,51.4029016 C62.715034,64.8646292 73.7089142,75.7708557 87.2760603,75.7708557 L98.1421086,75.7708557 C111.719344,75.7708557 122.703135,64.8681277 122.703135,51.4029016 L122.703135,17.1876132 L112.618543,25.7649677 C111.630141,26.6056457 110.37128,27.0677408 109.069476,27.0677408 L76.3486933,27.0677408 C75.0468888,27.0677408 73.7880276,26.6056457 72.7996255,25.7649677 L62.715034,17.1876132 L62.715034,51.4029016 Z" id="Shape"></path>
            </g>
            <path d="M270.203926,126.375661 L259.343408,126.375661 L259.343408,78.6973545 L259.01572,78.6973545 L239.494876,126.375661 L231.255862,126.375661 L211.735018,78.6973545 L211.40733,78.6973545 L211.40733,126.375661 L200.5,126.375661 L200.5,59.1883598 L214.49696,59.1883598 L235.188119,110.451852 L235.562619,110.451852 L256.253778,59.1883598 L270.203926,59.1883598 L270.203926,126.375661 Z M302.925916,127.353439 C288.367205,127.353439 278.911065,117.715344 278.911065,101.698413 C278.911065,85.7746032 288.46083,75.9968254 302.925916,75.9968254 C317.391002,75.9968254 326.940768,85.7280423 326.940768,101.698413 C326.940768,117.715344 317.484627,127.353439 302.925916,127.353439 Z M302.925916,118.180952 C310.322303,118.180952 315.097186,112.221164 315.097186,101.698413 C315.097186,91.2222222 310.322303,85.215873 302.925916,85.215873 C295.576342,85.215873 290.754647,91.2222222 290.754647,101.698413 C290.754647,112.221164 295.529529,118.180952 302.925916,118.180952 Z M334.43078,126.375661 L334.43078,77.021164 L345.618986,77.021164 L345.618986,85.4952381 L345.853048,85.4952381 C348.521365,79.6285714 353.811186,76.0899471 361.441636,76.0899471 C372.395779,76.0899471 378.621852,83.0740741 378.621852,94.4814815 L378.621852,126.375661 L366.96552,126.375661 L366.96552,96.8095238 C366.96552,89.8253968 363.68864,85.9142857 357.041254,85.9142857 C350.347056,85.9142857 346.087111,90.7100529 346.087111,97.7873016 L346.087111,126.375661 L334.43078,126.375661 Z M409.84584,117.203175 C417.289039,117.203175 422.110735,111.196825 422.110735,101.55873 C422.110735,91.9671958 417.289039,85.7280423 409.84584,85.7280423 C402.496265,85.7280423 397.815008,91.8740741 397.815008,101.55873 C397.815008,111.336508 402.496265,117.203175 409.84584,117.203175 Z M409.799027,145 C397.534132,145 388.733368,138.760847 387.563054,130.100529 L399.12576,130.100529 C400.389699,133.871958 404.649644,136.432804 410.173528,136.432804 C417.757165,136.432804 422.110735,132.195767 422.110735,125.910053 L422.110735,117.575661 L421.829859,117.575661 C419.255168,122.883598 413.403596,126.422222 406.288084,126.422222 C394.023189,126.422222 385.877801,116.877249 385.877801,101.512169 C385.877801,85.9142857 393.835939,76.1830688 406.522147,76.1830688 C413.590846,76.1830688 419.30198,79.8148148 422.157547,85.4952381 L422.344798,85.4952381 L422.344798,77.021164 L433.767066,77.021164 L433.767066,125.584127 C433.767066,137.364021 424.264113,145 409.799027,145 Z M465.225117,127.353439 C450.666406,127.353439 441.210266,117.715344 441.210266,101.698413 C441.210266,85.7746032 450.760031,75.9968254 465.225117,75.9968254 C479.690203,75.9968254 489.239969,85.7280423 489.239969,101.698413 C489.239969,117.715344 479.783828,127.353439 465.225117,127.353439 Z M465.225117,118.180952 C472.621504,118.180952 477.396387,112.221164 477.396387,101.698413 C477.396387,91.2222222 472.621504,85.215873 465.225117,85.215873 C457.875543,85.215873 453.053847,91.2222222 453.053847,101.698413 C453.053847,112.221164 457.82873,118.180952 465.225117,118.180952 Z M509.97794,126.375661 L497.900295,126.375661 L497.900295,59.1883598 L509.97794,59.1883598 L509.97794,90.6169312 L510.399253,90.6169312 L537.363297,59.1883598 L551.266632,59.1883598 L525.23884,88.9873016 L553.279573,126.375661 L538.580424,126.375661 L516.625326,97.042328 L509.97794,104.771429 L509.97794,126.375661 Z M558.756644,126.375661 L558.756644,77.021164 L570.412976,77.021164 L570.412976,126.375661 L558.756644,126.375661 Z M564.514591,69.5714286 C561.003648,69.5714286 558.148081,66.7312169 558.148081,63.2857143 C558.148081,59.7936508 561.003648,57 564.514591,57 C568.119159,57 570.927914,59.7936508 570.927914,63.2857143 C570.927914,66.7312169 568.119159,69.5714286 564.514591,69.5714286 Z M583.426872,65.4740741 L595.083203,65.4740741 L595.083203,77.021164 L604.445718,77.021164 L604.445718,85.9608466 L595.083203,85.9608466 L595.083203,111.615873 C595.083203,115.666667 596.955706,117.529101 601.075213,117.529101 C602.151902,117.529101 603.649904,117.435979 604.398906,117.296296 L604.398906,126.142857 C603.134966,126.422222 600.84115,126.608466 598.360083,126.608466 C587.640003,126.608466 583.426872,122.837037 583.426872,113.245503 L583.426872,85.9608466 L576.31136,85.9608466 L576.31136,77.021164 L583.426872,77.021164 L583.426872,65.4740741 Z M615.587111,65.4740741 L627.243443,65.4740741 L627.243443,77.021164 L636.605958,77.021164 L636.605958,85.9608466 L627.243443,85.9608466 L627.243443,111.615873 C627.243443,115.666667 629.115946,117.529101 633.235452,117.529101 C634.312142,117.529101 635.810144,117.435979 636.559145,117.296296 L636.559145,126.142857 C635.295206,126.422222 633.00139,126.608466 630.520323,126.608466 C619.800243,126.608466 615.587111,122.837037 615.587111,113.245503 L615.587111,85.9608466 L608.4716,85.9608466 L608.4716,77.021164 L615.587111,77.021164 L615.587111,65.4740741 Z M664.974379,84.9830688 C658.420618,84.9830688 653.692548,89.9650794 653.224422,96.8560847 L676.396648,96.8560847 C676.162585,89.8719577 671.668577,84.9830688 664.974379,84.9830688 Z M676.44346,111.615873 L687.35079,111.615873 C685.852788,120.928042 677.145649,127.353439 665.395692,127.353439 C650.509293,127.353439 641.521278,117.622222 641.521278,101.884656 C641.521278,86.2867725 650.602918,75.9968254 664.927566,75.9968254 C679.018152,75.9968254 687.818916,85.7280423 687.818916,100.720635 L687.818916,104.492063 L653.130797,104.492063 L653.130797,105.190476 C653.130797,113.10582 657.999305,118.413757 665.629755,118.413757 C671.060014,118.413757 675.179521,115.713228 676.44346,111.615873 Z M695.308928,126.375661 L695.308928,77.021164 L706.497134,77.021164 L706.497134,85.4952381 L706.731197,85.4952381 C709.399514,79.6285714 714.689335,76.0899471 722.319785,76.0899471 C733.273927,76.0899471 739.5,83.0740741 739.5,94.4814815 L739.5,126.375661 L727.843669,126.375661 L727.843669,96.8095238 C727.843669,89.8253968 724.566788,85.9142857 717.919402,85.9142857 C711.225204,85.9142857 706.96526,90.7100529 706.96526,97.7873016 L706.96526,126.375661 L695.308928,126.375661 Z" id="MongoKitten"></path>
        </g>
    </g>
</svg>